<svg xmlns="http://www.w3.org/2000/svg" viewBox="0 0 640 360" role="img" aria-labelledby="title desc">
  <title id="title">Vacances en famille</title>
  <desc id="desc">Illustration d'une famille sur la plage avec palmier, soleil et accessoires de vacances.</desc>
  <defs>
    <linearGradient id="sky" x1="0" y1="0" x2="0" y2="1">
      <stop offset="0" stop-color="#eaf4ff"/>
      <stop offset="1" stop-color="#ffffff"/>
    </linearGradient>
    <linearGradient id="sand" x1="0" y1="0" x2="1" y2="1">
      <stop offset="0" stop-color="#ffe7b8"/>
      <stop offset="1" stop-color="#ffd48a"/>
    </linearGradient>
  </defs>
  <rect width="640" height="360" fill="#fff"/>
  <ellipse cx="321" cy="292" rx="246" ry="40" fill="#eef2f7"/>
  <circle cx="210" cy="126" r="88" fill="url(#sky)"/>
  <circle cx="96" cy="91" r="28" fill="#ffd24d"/>
  <g stroke="#ffc53d" stroke-width="7" stroke-linecap="round">
    <path d="M96 45v-16"/>
    <path d="M96 153v16"/>
    <path d="M50 91H34"/>
    <path d="M158 91h16"/>
    <path d="M63 58 51 46"/>
    <path d="M129 124l12 12"/>
    <path d="M129 58l12-12"/>
    <path d="M63 124l-12 12"/>
  </g>
  <path d="M122 122c14-18 42-18 56 0 13-18 43-18 56 0" fill="none" stroke="#ffffff" stroke-width="10" stroke-linecap="round"/>
  <path d="M130 154c34 8 92 8 128-2" fill="none" stroke="#ffffff" stroke-width="8" stroke-linecap="round"/>
  <path d="M83 259c56-30 124-43 208-38 82 5 143 30 193 64-43 28-113 42-212 37-82-4-146-25-189-63z" fill="url(#sand)"/>
  <path d="M523 276c20-66 32-131 29-195" fill="none" stroke="#8f3b2d" stroke-width="15" stroke-linecap="round"/>
  <path d="M552 83c-35 0-65 14-91 42 39-7 69-5 91 5-12-24-12-39 0-47z" fill="#0f9f80"/>
  <path d="M552 82c-20-33-48-50-85-51 26 31 40 59 43 85 12-19 26-30 42-34z" fill="#13b98f"/>
  <path d="M554 82c28-33 62-45 102-35-35 18-59 40-73 66-8-18-18-29-29-31z" fill="#087c68"/>
  <path d="M552 84c11-42 33-68 66-78-7 39-21 68-43 87-7-6-15-9-23-9z" fill="#12a780"/>
  <path d="M101 245c15-41 38-62 68-65-19 25-28 51-27 78-13-10-27-14-41-13z" fill="#12a780"/>
  <path d="M75 258c9-33 28-53 56-59-15 22-21 45-19 69-11-7-24-10-37-10z" fill="#0f8b73"/>
  <g>
    <circle cx="199" cy="125" r="14" fill="#f6b083"/>
    <path d="M183 121c7-20 30-18 39-4-13 2-27 3-39 4z" fill="#1f2937"/>
    <path d="M188 139h27l11 74h-49l11-74z" fill="#ff6b6b"/>
    <path d="M184 144c-21 7-35 21-41 42" fill="none" stroke="#f6b083" stroke-width="11" stroke-linecap="round"/>
    <path d="M216 145c16 9 30 25 39 47" fill="none" stroke="#f6b083" stroke-width="11" stroke-linecap="round"/>
    <path d="M181 213h18l-3 46h-18z" fill="#2563eb"/>
    <path d="M204 213h18l8 46h-18z" fill="#2563eb"/>
  </g>
  <g>
    <circle cx="302" cy="104" r="13" fill="#f1a97d"/>
    <path d="M288 101c7-20 30-20 37 0-13-5-25-5-37 0z" fill="#111827"/>
    <path d="M288 121h28l15 89h-56l13-89z" fill="#ffffff"/>
    <path d="M286 127c-18 14-33 31-45 52" fill="none" stroke="#f1a97d" stroke-width="10" stroke-linecap="round"/>
    <path d="M318 127c19 8 36 21 51 39" fill="none" stroke="#f1a97d" stroke-width="10" stroke-linecap="round"/>
    <path d="M278 210h19l-6 51h-18z" fill="#e64e5f"/>
    <path d="M307 210h19l11 51h-18z" fill="#e64e5f"/>
  </g>
  <g>
    <circle cx="399" cy="139" r="12" fill="#c97854"/>
    <path d="M386 138c3-17 22-23 36-12-7 10-19 13-36 12z" fill="#111827"/>
    <path d="M384 154h30l17 60h-52z" fill="#ef4444"/>
    <path d="M385 158c-17 11-29 26-36 45" fill="none" stroke="#c97854" stroke-width="10" stroke-linecap="round"/>
    <path d="M414 160c17 13 32 29 45 50" fill="none" stroke="#c97854" stroke-width="10" stroke-linecap="round"/>
    <path d="M382 214h18l-3 40h-17z" fill="#0ea5e9"/>
    <path d="M406 214h18l8 40h-17z" fill="#0ea5e9"/>
  </g>
  <g>
    <circle cx="494" cy="107" r="15" fill="#e7a06f"/>
    <path d="M479 104c7-23 35-22 43-2-14 2-29 3-43 2z" fill="#6b3d26"/>
    <path d="M478 127h32l18 89h-66z" fill="#2563eb"/>
    <path d="M480 129c-16-18-26-39-31-63" fill="none" stroke="#e7a06f" stroke-width="11" stroke-linecap="round"/>
    <path d="M510 130c22-13 39-31 50-54" fill="none" stroke="#e7a06f" stroke-width="11" stroke-linecap="round"/>
    <path d="M466 216h22l-5 51h-20z" fill="#ffbf3f"/>
    <path d="M499 216h22l10 51h-20z" fill="#ffbf3f"/>
  </g>
  <path d="M112 286c94 20 253 22 395-3" fill="none" stroke="#f7b267" stroke-width="6" stroke-linecap="round"/>
  <rect x="432" y="245" width="72" height="26" rx="7" fill="#ffffff" stroke="#cbd5e1"/>
  <path d="M438 252h60" stroke="#ef4444" stroke-width="5" stroke-linecap="round"/>
  <path d="M441 264h52" stroke="#2563eb" stroke-width="5" stroke-linecap="round"/>
  <circle cx="133" cy="255" r="11" fill="#ef4444"/>
  <path d="M122 254h22" stroke="#fff" stroke-width="4"/>
  <path d="M151 271h44" stroke="#111827" stroke-width="7" stroke-linecap="round"/>
  <path d="M255 272h66" stroke="#ef4444" stroke-width="6" stroke-linecap="round"/>
  <path d="M263 284h54" stroke="#2563eb" stroke-width="6" stroke-linecap="round"/>
</svg>
